Coordinates
version=1
nRows=49
nColumns=12
inDegrees=yes

Units are S.I. units (second, meters, Newtons, ...)
Angles are in degrees

endheader
time	SC_y	SC_z	SC_x	AC_y	AC_z	AC_x	GH_y	GH_z	GH_yy	EL_x	PS_y
       0.0              -57.47         -4.142          17.48          59.44          2.353         0.1967         -13.99          29.09         -131.7          73.81           77.6
   0.02253              -57.47         -4.136          17.49          59.44          2.352          0.195         -13.99          29.08         -131.7          73.81           77.6
   0.04507              -57.46         -4.129           17.5          59.43          2.351         0.1932         -13.99          29.08         -131.6           73.8          77.59
    0.0676              -57.46         -4.122          17.51          59.43          2.349         0.1912         -13.98          29.07         -131.6          73.79          77.58
   0.09014              -57.46         -4.115          17.52          59.43          2.348         0.1892         -13.98          29.06         -131.5          73.78          77.58
    0.1127              -57.46         -4.107          17.53          59.43          2.346          0.187         -13.98          29.06         -131.5          73.77          77.57
    0.1352              -57.46         -4.099          17.54          59.43          2.345         0.1847         -13.98          29.05         -131.4          73.76          77.56
    0.1577              -57.46          -4.09          17.55          59.43          2.343         0.1822         -13.97          29.04         -131.4          73.75          77.55
    0.1803              -57.46          -4.08          17.56          59.43          2.341         0.1795         -13.97          29.03         -131.3          73.74          77.54
    0.2028              -57.46          -4.07          17.58          59.42          2.339         0.1767         -13.97          29.02         -131.3          73.73          77.53
    0.2253              -57.46         -4.059          17.59          59.42          2.337         0.1736         -13.96          29.01         -131.2          73.71          77.52
    0.2479              -57.46         -4.047          17.61          59.42          2.334         0.1703         -13.96           29.0         -131.1           73.7          77.51
    0.2704              -57.46         -4.034          17.62          59.42          2.332         0.1668         -13.95          28.99         -131.0          73.68           77.5
    0.2929              -57.45         -4.021          17.64          59.42          2.329         0.1629         -13.95          28.98         -131.0          73.66          77.49
    0.3155              -57.45         -4.006          17.66          59.41          2.326         0.1588         -13.94          28.96         -130.9          73.65          77.47
     0.338              -57.45          -3.99          17.68          59.41          2.323         0.1543         -13.94          28.95         -130.8          73.63          77.46
    0.3606              -57.45         -3.972          17.71          59.41          2.319         0.1494         -13.93          28.93         -130.7           73.6          77.44
    0.3831              -57.45         -3.953          17.73           59.4          2.316          0.144         -13.92          28.92         -130.5          73.58          77.42
    0.4056              -57.44         -3.932          17.76           59.4          2.311         0.1382         -13.92           28.9         -130.4          73.55           77.4
    0.4282              -57.44         -3.909          17.79           59.4          2.307         0.1318         -13.91          28.88         -130.3          73.53          77.38
    0.4507              -57.44         -3.884          17.82          59.39          2.302         0.1248          -13.9          28.85         -130.1          73.49          77.36
    0.4732              -57.44         -3.856          17.86          59.39          2.296         0.1171         -13.89          28.83         -129.9          73.46          77.33
    0.4958              -57.43         -3.826           17.9          59.38           2.29         0.1086         -13.88           28.8         -129.8          73.42           77.3
    0.5183              -57.43         -3.792          17.95          59.38          2.283        0.09911         -13.87          28.77         -129.5          73.38          77.27
    0.5408              -57.43         -3.754           18.0          59.37          2.276        0.08861         -13.85          28.73         -129.3          73.33          77.23
    0.5634              -57.42         -3.712          18.05          59.36          2.267         0.0769         -13.84           28.7         -129.1          73.28          77.19
    0.5859              -57.42         -3.665          18.12          59.36          2.258        0.06378         -13.82          28.65         -128.8          73.22          77.15
    0.6084              -57.41         -3.612          18.19          59.35          2.247        0.04902          -13.8          28.61         -128.4          73.16           77.1
     0.631              -57.41         -3.552          18.27          59.34          2.235        0.03235         -13.78          28.55         -128.1          73.08          77.04
    0.6535               -57.4         -3.484          18.36          59.32          2.222        0.01341         -13.76          28.49         -127.7           73.0          76.98
     0.676              -57.39         -3.407          18.46          59.31          2.206      -0.008198         -13.73          28.42         -127.2           72.9           76.9
    0.6986              -57.38         -3.318          18.58           59.3          2.189         -0.033          -13.7          28.34         -126.6          72.79          76.82
    0.7211              -57.37         -3.215          18.72          59.28          2.168       -0.06163         -13.66          28.24         -126.0          72.66          76.72
    0.7436              -57.36         -3.095          18.87          59.26          2.144       -0.09491         -13.62          28.14         -125.3          72.51          76.61
    0.7662              -57.34         -2.956          19.06          59.23          2.116        -0.1338         -13.57          28.01         -124.4          72.34          76.48
    0.7887              -57.33         -2.791          19.28          59.21          2.084        -0.1797         -13.51          27.86         -123.4          72.13          76.32
    0.8112              -57.31         -2.595          19.54          59.17          2.044        -0.2343         -13.45          27.68         -122.2          71.89          76.14
    0.8338              -57.28         -2.361          19.85          59.13          1.998        -0.2996         -13.36          27.47         -120.8           71.6          75.91
    0.8563              -57.25         -2.077          20.23          59.09          1.941        -0.3787         -13.26          27.21         -119.0          71.25          75.64
    0.8788              -57.22          -1.73          20.69          59.03          1.872        -0.4753         -13.14          26.89         -116.9          70.81          75.31
    0.9014              -57.17         -1.302          21.26          58.95          1.786        -0.5946         -12.99          26.51         -114.3          70.28          74.91
    0.9239              -57.12        -0.7684          21.97          58.86           1.68        -0.7433          -12.8          26.02         -111.0          69.62           74.4
    0.9464              -57.05       -0.09612          22.86          58.75          1.546        -0.9306         -12.56          25.41         -106.9          68.78          73.76
     0.969              -56.96         0.7585           24.0           58.6          1.375         -1.169         -12.26          24.63         -101.6          67.72          72.95
    0.9915              -56.85          1.852          25.46          58.42          1.157         -1.474         -11.87          23.64          -94.9          66.36          71.92
     1.014               -56.7          3.256          27.32          58.18         0.8764         -1.865         -11.38          22.36         -86.28          64.61          70.58
     1.037              -56.52          5.049          29.71          57.87         0.5184         -2.364         -10.75          20.73         -75.28          62.38          68.88
     1.059              -56.29          7.304          32.71          57.49        0.06833         -2.992         -9.949          18.68         -61.44          59.57          66.75
     1.082               -56.0          10.05          36.36          57.02        -0.4802         -3.758         -8.978          16.18         -44.57          56.16          64.14
